<svg fill="white" xmlns="http://www.w3.org/2000/svg" xmlns:xlink="http://www.w3.org/1999/xlink" version="1.1" x="0px" y="0px" viewBox="0 0 48 48" enable-background="new 0 0 48 48" xml:space="preserve"><g><path fill="white" d="M16.055,17.8c-4.391,3.987-9.979,6.308-15.919,6.613c0.135,5.485,2.149,10.931,6.053,15.273L22.065,23.81   L16.055,17.8z"/><path fill="white" d="M6.201,7.946c-3.588,3.984-5.582,8.899-5.994,13.921c5.235-0.314,10.156-2.371,14.048-5.867L6.201,7.946z"/><path fill="white" d="M23.86,22.014L39.714,6.16c-4.219-3.798-9.579-5.926-15.276-6.064c-0.297,5.931-2.611,11.515-6.59,15.907   L23.86,22.014z"/><path fill="white" d="M21.893,0.167c-5.178,0.42-10.018,2.499-13.895,5.985l8.051,8.051C19.537,10.31,21.586,5.394,21.893,0.167z   "/><path fill="white" d="M23.86,25.606L7.984,41.482c4.169,3.755,9.454,5.881,15.077,6.064c0.263-6.018,2.591-11.683,6.619-16.121   L23.86,25.606z"/><path fill="white" d="M31.476,29.631c4.433-4.015,10.086-6.335,16.087-6.595c-0.178-5.42-2.193-10.79-6.053-15.08L25.656,23.81   L31.476,29.631z"/><path fill="white" d="M41.523,39.677c3.622-4.032,5.614-9.015,5.988-14.097c-5.304,0.267-10.295,2.322-14.235,5.85L41.523,39.677   z"/><path fill="white" d="M25.605,47.494c5.266-0.382,10.191-2.475,14.123-6.02l-8.25-8.25   C27.937,37.169,25.874,42.174,25.605,47.494z"/></g></svg>
