<svg fill="white" xmlns="http://www.w3.org/2000/svg" xmlns:xlink="http://www.w3.org/1999/xlink" version="1.1" x="0px" y="0px" viewBox="0 0 128 128" enable-background="new 0 0 128 128" xml:space="preserve"><g><path d="M56.717,30.301l0.682-14.509L36.116,6.407c-5.98,2.888-11.372,6.645-16.058,11.08l-1.192,28.507l16.457,9.174   L56.717,30.301z"/><path d="M60.86,15.854L60.19,30.07L94.56,52.563l15.467-4.309l1.879-26.693c-6.672-7.519-15.031-13.345-24.324-17.039L60.86,15.854   z"/><polygon points="81.13,91.414 92.233,55.176 58.738,33.258 37.154,58.35 45.119,85.883  "/><path d="M113.44,49.037l14.475,17.953c0.27-5.783-0.23-11.697-1.619-17.613c-2.1-8.947-5.996-17.002-11.197-23.896L113.44,49.037z"/><path d="M111.034,51.566l-15.389,4.287L84.321,92.813l11.254,10.262l24.043-7.459c4.104-7.217,6.822-15.232,7.881-23.627   L111.034,51.566z"/><path d="M16.438,21.199C6.919,31.795,1.037,45.434,0.127,59.979l15.267-13.791L16.438,21.199z"/><path d="M96.341,106.461l-8.951,17.094c12.238-4.789,22.357-13.094,29.432-23.449L96.341,106.461z"/><path d="M59.195,12.802l23.536-9.982C72.255-0.4,60.818-0.983,49.379,1.701c-3.104,0.728-6.096,1.677-8.974,2.815L59.195,12.802z"/><path d="M92.989,105.4L81.567,94.982l-37.12-5.703L35.25,99.922l14.642,26.502c9.176,2.078,18.951,2.166,28.727-0.127   c1.357-0.32,2.686-0.693,4.002-1.092L92.989,105.4z"/><path d="M32.465,97.854l9.376-10.85l-8.362-28.9l-16.146-9L0.015,64.746c0.058,4.582,0.594,9.227,1.686,13.871   c1.303,5.553,3.301,10.758,5.864,15.561L32.465,97.854z"/><path d="M32.052,101.289L9.794,98.006c8.219,13.1,20.897,22.691,35.454,27.166L32.052,101.289z"/></g></svg>
