<svg fill="white" xmlns="http://www.w3.org/2000/svg" xmlns:xlink="http://www.w3.org/1999/xlink" version="1.0" x="0px" y="0px" viewBox="0 0 100 100" enable-background="new 0 0 100 100" xml:space="preserve"><path stroke="white" stroke-width="2" stroke-linecap="round" stroke-linejoin="round" stroke-miterlimit="10" d="M30.006,15.363  c-5.894,3.394-11.003,8.327-14.648,14.64C10.405,38.578,9,48.225,10.672,57.258C16.977,42.63,30.028,31.25,46.627,27.684  C42.965,21.836,37.196,17.291,30.006,15.363z"/><path fill="none" stroke="white" stroke-width="2" stroke-linecap="round" stroke-linejoin="round" stroke-miterlimit="10" d="  M50.002,50c2.116-7.897,0.646-15.894-3.375-22.315C30.028,31.25,16.977,42.63,10.672,57.258  c2.055,11.112,8.771,21.289,19.327,27.383c0,0.002,0,0.002,0.002,0.002v-0.002C25.955,69.55,34.91,54.042,49.999,50H50.002z"/><path stroke="white" stroke-width="2" stroke-linecap="round" stroke-linejoin="round" stroke-miterlimit="10" d="M89.998,50.005  c0.006-6.799-1.71-13.693-5.355-20.006c-4.953-8.576-12.605-14.616-21.263-17.685c9.515,12.772,12.847,29.768,7.636,45.922  C77.911,57.99,84.732,55.268,89.998,50.005z"/><path fill="none" stroke="white" stroke-width="2" stroke-linecap="round" stroke-linejoin="round" stroke-miterlimit="10" d="  M50,50.003c5.783,5.78,13.441,8.503,21.014,8.233c5.213-16.155,1.879-33.15-7.635-45.922c-10.652-3.775-22.827-3.049-33.381,3.044  c-0.001,0.002-0.001,0.002-0.003,0.003h0.002C45.09,19.404,54.045,34.912,50.002,50L50,50.003z"/><path stroke="white" stroke-width="2" stroke-linecap="round" stroke-linejoin="round" stroke-miterlimit="10" d="M29.991,84.636  C35.88,88.041,42.707,90.002,49.998,90c9.902,0.002,18.961-3.607,25.947-9.57c-15.819,1.855-32.204-3.759-43.591-16.349  C29.121,70.177,28.068,77.443,29.991,84.636z"/><path fill="none" stroke="white" stroke-width="2" stroke-linecap="round" stroke-linejoin="round" stroke-miterlimit="10" d="  M49.993,50.003c-7.898,2.117-14.087,7.386-17.639,14.078c11.388,12.59,27.772,18.204,43.591,16.349  C84.54,73.095,89.998,62.189,90,50.003c0,0-0.002,0,0-0.004l-0.002,0.004C78.95,61.048,61.041,61.048,49.994,50.006L49.993,50.003z"/></svg>
